<svg xmlns="http://www.w3.org/2000/svg" shape-rendering="crispEdges" viewBox="0 -0.5 160 160">
  <path stroke="#4c3a52" d="M75 10h1m28 0h1M45 20h1m68 0h1M15 40h1"/>
  <path stroke="#4f3859" d="M76 10h20m7 0h1m-29 1h1m-1 1h1m-1 1h1m-1 1h1m28 0h1m-30 1h1m28 0h1m-30 1h1m28 0h1m-30 1h1m28 0h1m-30 1h1m28 0h1m-59 2h1m20 0h2m39 0h6m-69 1h1m68 0h1m-70 1h1m68 0h1m-70 1h1m68 0h1m-70 1h1m68 0h1m-70 1h1m68 0h1m-1 1h1m-1 1h1m-1 1h1m9 11h1M16 40h8m-9 1h1m-1 1h1m-1 1h1m-1 1h1m-1 1h1m-1 1h1m-1 1h1m-1 1h1m-1 1h1m-1 1h1m-1 1h1m-1 1h1m-1 1h1m-1 1h1m-1 1h1m-1 1h1m-1 1h1m-1 1h1m-1 1h1m-1 1h1m-1 1h1m-1 1h1m-1 1h1m-1 1h1m-1 1h1m-1 1h1m-1 1h1m-1 1h1m-1 1h1m-1 1h1m-1 1h1m-1 1h1m-1 1h1m-1 1h1m-1 1h1m-1 1h1m-1 1h1m-1 1h1m-1 1h1m-1 1h1m-1 1h1m-1 1h1m-1 1h1m-1 1h1m-1 1h1m-1 1h1m-1 1h1m-1 1h1m-1 1h1m-1 1h1m-1 1h1m-1 1h1m-1 1h1m-1 1h1m-1 1h1m-1 1h1m-1 1h1m-1 1h1m-1 1h1m-1 1h1m-1 1h1m-1 1h1m-1 1h1m29 2h1m69 0h1m-101 1h1m29 0h1m69 0h1m-71 1h1m69 0h1m-71 1h1m69 0h1m-71 1h1m69 0h1m-71 1h1m69 0h1m-71 1h1m69 0h1m-71 1h1m69 0h1m-1 1h1m-1 1h1m-1 1h1m-1 1h1m-1 1h1m-1 1h1m-71 1h1m69 0h1m-71 1h1m-1 1h1m-1 1h1m-1 1h1m-1 1h1m-1 1h1m-1 1h1m-1 1h1m-1 1h1m-1 1h1m-1 1h1m-1 1h1m-1 1h1m-1 1h1m-1 1h1m-1 1h1m-1 1h1m-1 1h1m-1 1h1m5 1h1m6 10h1m5 0h1"/>
  <path stroke="#4e3859" d="M96 10h5M49 20h1m57 0h1m-63 6h1m-1 1h1m-20 3h17m80 0h1m-99 1h1m98 0h1M25 32h1m98 0h1M25 33h1m98 0h1M25 34h1m98 0h1M25 35h1m98 0h1M25 36h1m98 0h1M25 37h1m98 0h1M25 38h1m98 0h1m-10 63h1m-1 1h1m-1 1h1m-71 1h1m69 0h1m-70 35h5m4 4h1m-1 1h1m-1 1h1m-1 1h1m-1 1h1m-1 1h1m0 1h2"/>
  <path stroke="#4e385b" d="M101 10h1M50 20h2m54 0h1m15 10h1M55 141h1m-1 1h1"/>
  <path stroke="#4f375b" d="M102 10h1M52 20h15m-22 8h1m70 2h6m-7 70h1m-101 4h1m-1 1h1m-1 2h1m-1 1h1m0 1h3m26 4h1m-1 1h1m-1 1h1m-1 1h1m-1 1h1m-1 1h1m6 21h2m1 1h1"/>
  <path stroke="#523461" d="M76 11h25m1 0h1m-27 1h27m-27 1h23m2 0h2m-27 1h23m-23 1h22m5 0h1m-28 1h7m4 0h8m5 0h3m-27 1h7m4 0h8m6 0h2m-27 1h7m8 0h10m1 0h2m-58 3h1m2 0h1m17 0h2m38 0h7m-68 1h4m1 0h17m-22 1h3m2 0h16m-20 1h2m2 0h1m15 0h2m38 0h7m-67 1h2m2 0h1m15 0h2m37 0h8m-67 1h1m1 0h19m39 0h7m-67 1h1m1 0h18m40 0h7m-65 1h18m40 0h7m8 3h1m-96 1h16m73 0h7m-96 1h16m73 0h7m-96 1h16m73 0h7m-96 1h16m73 0h7m-96 1h16m73 0h7m-96 1h16m73 0h7m-96 1h16m73 0h7M16 41h8m-8 1h8m-8 1h8m-8 1h8m-8 1h8m-8 1h3m2 0h3m-8 1h3m2 0h3m-8 1h3m-3 1h3m-3 1h3m4 0h1m-8 1h3m2 0h1m-6 1h3m2 0h2m-7 1h3m2 0h2m-7 1h5m1 0h1m-7 1h5m1 0h1m-7 1h7m-7 1h7m-7 1h5m-5 1h5m-5 1h5m-5 1h5m-5 1h5m-5 1h5m-5 1h1m2 0h2m1 0h1m-7 1h1m2 0h2m-5 1h1m-1 1h1m5 0h1m-7 1h1m5 0h1m-7 1h1m5 0h1m-7 1h1m2 0h4m-7 1h1m2 0h4m-7 1h1m2 0h4m-7 1h1m2 0h5m-8 1h1m2 0h5m-8 1h1m2 0h5m-8 1h1m2 0h5m-8 1h1m2 0h5m-8 1h1m2 0h5m-8 1h1m2 0h5m-8 1h1m2 0h4m-7 1h1m2 0h4m-7 1h1m2 0h4m-7 1h1m2 0h4m-7 1h1m2 0h4m44 0h4m-55 1h1m2 0h4m44 0h4m-55 1h1m2 0h4m44 0h4m-55 1h1m2 0h4m44 0h4m-55 1h1m4 0h2m43 0h5m-55 1h1m1 0h1m2 0h2m43 0h5m-55 1h1m1 0h1m4 0h1m42 0h5m-55 1h1m7 0h1m1 0h2m38 0h5m-55 1h1m6 0h2m41 0h5m44 0h9M16 93h1m6 0h2m41 0h5m44 0h9M16 94h1m6 0h2m2 0h8m31 0h5m44 0h9M16 95h1m1 0h1m4 0h2m2 0h8m31 0h5m44 0h8M16 96h1m1 0h1m2 0h14m32 0h4m48 0h5M16 97h1m1 0h1m2 0h14m32 0h4m48 0h5M16 98h1m1 0h1m2 0h14m34 0h2m48 0h5M16 99h1m1 0h1m2 0h13m34 0h3m48 0h5m-108 1h1m1 0h1m2 0h2m93 0h8m-108 1h1m1 0h1m2 0h2m26 0h1m43 0h2m21 0h8m-108 1h1m1 0h1m2 0h2m26 0h4m33 0h1m4 0h4m21 0h8m-108 1h1m1 0h1m2 0h2m25 0h5m33 0h1m2 0h6m21 0h8m-108 1h2m3 0h2m23 0h3m2 0h3m32 0h5m25 0h8m-108 1h7m23 0h3m2 0h3m32 0h3m3 0h1m23 0h8m-107 1h1m28 0h3m2 0h3m32 0h1m4 0h1m2 0h1m21 0h8m-78 1h3m2 0h3m32 0h1m4 0h1m1 0h2m21 0h8m-102 1h1m23 0h3m2 0h3m37 0h3m22 0h8m-78 1h3m2 0h3m62 0h8m-78 1h3m2 0h3m62 0h8m-78 1h3m2 0h3m62 0h8m-78 1h8m62 0h8m-78 1h8m62 0h8m-78 1h8m62 0h8m-78 1h8m62 0h8m-78 1h8m62 0h8m-78 1h8m62 0h8m-78 1h8m62 0h8m-78 1h8m62 0h8m-78 1h1m2 0h5m-8 1h1m2 0h5m-8 1h1m2 0h5m-8 1h1m2 0h5m-8 1h1m2 0h5m-8 1h1m2 0h5m-8 1h1m2 0h5m-8 1h1m2 0h5m-7 1h7m-7 1h7m-7 1h7m-7 1h7m-7 1h7m-7 1h7m-7 1h7m-7 1h7m-7 1h2m1 0h2m-5 1h2m1 0h2m-6 1h1m3 0h2m1 0h1m2 2h2m-2 2h5m-5 1h1m2 0h2m-2 1h1m1 0h2m-5 1h1m2 0h2m-6 1h2m-2 1h2m-2 1h2m2 0h4"/>
  <path stroke="#523463" d="M101 11h1m-3 6h2m-50 4h16m-17 1h1m-2 1h2m-3 3h1m-1 1h1m67 4h6M19 52h2m-2 1h2m0 1h1m-1 1h1m-3 33h1m-1 3h1m0 1h1m-1 1h1m-2 1h1m46 2h1m-1 1h1m-1 1h3m-3 1h2m-18 2h4m32 0h1m1 0h1m2 0h2m-40 1h1m33 0h2m-36 1h1m33 0h2m-40 1h2m-2 1h2m-33 1h2m4 0h1m24 0h2m42 0h1m-77 1h3m4 0h1m24 0h2m-35 1h1m32 0h2m-2 1h2m-2 1h2m-2 1h2m1 25h2m-2 1h2m3 4h6m-2 1h2m-2 1h2m-3 1h1m-2 1h2m-2 1h4m-4 1h4m-4 1h2"/>
  <path stroke="#543461" d="M103 11h1m-1 1h1m-5 1h2m2 0h1m-3 1h1m1 0h1m-6 1h1m2 0h1m-7 1h5m3 0h1m-9 1h4m-40 7h8m-8 1h8m39 1h1m-1 1h1M19 46h2m-2 1h2m-2 3h2m-2 1h2m0 7h2m-2 1h2m-2 1h2m-2 1h2m-2 1h2m-2 1h2m43 21h1m4 0h1m-6 1h1m4 0h3m-8 1h1m4 0h3m-8 1h1m4 0h3m-3 1h3m-3 1h3m-53 1h2m48 0h3m-53 1h1m49 0h3m-53 1h2m2 0h2m44 0h3m-53 1h2m2 0h2m44 0h3m-53 1h2m2 0h2m44 0h3m-53 1h2m2 0h2m44 0h3m49 0h1M19 96h2m50 0h3m-55 1h2m50 0h3m-55 1h2m50 0h3m-55 1h2m50 0h1m-53 1h2m65 0h3m-70 1h2m68 0h2m-72 1h2m68 0h2m-72 1h2m72 1h2m-2 1h2m-79 1h1m75 0h1m-77 1h1m75 0h1m-74 1h1m26 28h1m-1 1h1m5 1h1"/>
  <path stroke="#513759" d="M104 11h1m-1 1h1m-1 1h1m-1 6h1m-31 1h1m39 9h1m-71 1h1m-20 9h1"/>
  <path stroke="#54345f" d="M99 14h2m-2 1h2m2 2h1m-22 2h10m6 0h6m-57 2h1m4 3h7m-7 1h7m46 3h1m-60 1h1m60 0h7m1 2h1m-72 1h1m70 0h1m-72 1h1m70 0h1m-72 1h1m70 0h1m-72 1h1m70 0h1m-72 1h1m70 0h1m-72 1h1m70 0h1m-72 1h1m70 0h1m-89 1h16m73 0h7M19 48h2m-2 1h2m50 34h1m0 1h2m0 1h1m-1 1h1m-1 1h1m-1 1h1m-1 1h1m-1 1h1m-1 1h1m40 0h8m-49 1h1m-1 1h1m-1 1h1m-1 1h1m-1 1h1m-1 1h1m-1 1h1m-3 1h2m-28 1h1m-28 4h2m33 15h1m-1 1h1m-1 1h1m-1 1h1m-1 1h1m-1 1h1m-1 1h1m-1 1h1m-1 1h1m-1 1h1m-1 1h1m-1 1h1m-1 1h1m-1 1h1m-1 1h1m-1 1h1m-1 1h1m-1 1h1m-1 1h1m-1 1h1m3 2h5"/>
  <path stroke="#543363" d="M102 14h1m-1 1h1M20 88h1m-2 1h2m-2 1h2m-1 1h1m-1 3h1m-2 1h2m-4 13h2"/>
  <path stroke="#513561" d="M83 16h4m-4 1h4m-4 1h8m10 0h1m-52 3h1m55 0h1m-57 4h1m17 1h1m-2 1h2m-22 1h2m18 0h2m-43 3h17m80 0h1m-1 1h1m-1 1h1m-1 1h1m-1 1h1m-1 1h1m-1 1h1m-1 1h1M17 64h2m-2 1h2m-2 1h2m-2 1h2m-2 1h2m-2 1h2m-2 1h2m-2 1h2m-2 1h2m-2 1h2m-2 1h2m-2 1h2m-2 1h2m-2 1h2m-2 1h2m-2 1h2m-2 1h2m-2 1h2m-2 1h2m-2 1h2m-2 1h2m-2 1h2m-2 1h2m-2 1h2m-2 1h2m-2 1h1m-1 1h1m-1 1h2m-2 1h2m-2 1h2m-2 1h2m-2 1h1m-1 1h1m-1 1h1m-1 1h1m-1 1h1m-1 1h1m-1 1h1m-1 1h1m28 0h1m-30 1h1m28 0h1m-23 1h1m-1 1h1m64 0h2m-71 1h3m-3 1h3m1 1h1m24 30h1m6 6h1m-1 1h1m-1 3h1"/>
  <path stroke="#51365b" d="M75 19h1M45 29h1m69 1h1M54 139h1"/>
  <path stroke="#56335f" d="M76 19h6m10 0h6M44 39h1m22 41h2m46 10h9m-77 10h2"/>
  <path stroke="#4f3857" d="M47 20h2m20 0h5"/>
  <path stroke="#a984ae" d="M75 20h1m-1 6h1m-1 1h1m-1 1h1"/>
  <path stroke="#ac83ae" d="M76 20h5m-6 1h1m0 3h1m-1 1h1m-1 3h1m-1 1h1M41 59h1"/>
  <path stroke="#ac83ac" d="M81 20h1m10 0h6m-23 2h1m1 2h4m22 0h1m-27 1h4m22 0h1m-1 1h1m-1 1h1m-27 1h4m18 0h2m2 0h1m-27 1h3m14 0h6m-54 7h1m2 0h2m-5 1h1m2 0h2m-5 1h1m2 0h2m-5 1h1m2 0h2m-7 6h1m-1 1h1m-1 1h1m-1 1h1m-1 1h1m-1 1h1m-1 1h1m-1 1h1m-1 1h1m-1 1h1m-1 1h1m-1 1h1m-3 3h3m7 2h1m0 1h1m-1 1h1m-7 1h2m4 0h1m2 6h2"/>
  <path stroke="#aa84ac" d="M82 20h10m6 0h5m-28 3h1m1 3h4m-4 1h4M26 40h19"/>
  <path stroke="#aa84aa" d="M103 20h1m-1 2h1m-23 4h1m-1 1h1m13 1h3m-51 3h4M25 48h1m15 10h2m5 4h1m-2 1h3m-4 3h1"/>
  <path stroke="#a685a9" d="M104 20h1"/>
  <path stroke="#52385c" d="M105 20h1"/>
  <path stroke="#52355f" d="M48 21h1m20 0h4m-5 1h3m35 0h8m-47 1h4m35 0h8m-45 1h4m33 0h1m-38 1h4m50 14h1M21 48h2m-2 1h2m-2 1h2m-1 1h1m-2 13h1m-1 1h2m-4 1h4m-4 1h3m-3 1h3m-3 1h3m45 12h2m-2 1h2m-2 1h4m-44 9h8m-8 1h8m80 3h4m-4 1h4m-4 1h4m-3 1h3m-95 1h1m-1 1h1m22 0h2m-25 1h1m22 0h2m-25 1h1m22 0h1m-30 1h1m72 0h2m-2 1h1m-5 1h2m-2 1h2m-69 1h2m65 0h2m5 0h1m-48 12h2m-2 1h2m-2 1h2m-2 1h2m-2 1h2m-2 1h2m-2 1h2m-2 1h2m-3 1h1m-1 1h1m-1 1h1m-1 1h1m-1 1h1m-1 1h1m-1 1h1m-1 1h1m2 1h1m-1 1h1m-3 1h2m8 5h2m-2 1h2m-2 1h1m-2 1h1m-1 1h1"/>
  <path stroke="#52355d" d="M73 21h1m-3 1h3m-3 1h3m-1 1h1m-1 1h1m0 2h1m-1 1h1m-6 53h2m-2 1h2"/>
  <path stroke="#56345d" d="M74 21h1m-1 1h1m40 17h1M69 80h3"/>
  <path stroke="#ad82ae" d="M76 21h1M28 49h6m1 2h1m-1 1h1m-1 1h1m-1 1h1m-1 1h1m-1 1h1m-1 1h1m-1 1h1m0 1h5m13 1h1m-9 9h1m7 0h1m0 1h1m-1 1h1m4 8h3"/>
  <path stroke="#ad82ac" d="M77 21h4m-5 1h3m-3 1h3m20 3h1m-1 1h2m-21 2h14m6 0h3m-32 3h4m-4 1h4m-4 1h4m-4 1h4m-24 1h8m12 0h4m-24 1h8m12 0h4m-24 1h8m12 0h4m-28 1h2m2 0h24M26 49h2m6 0h1m0 1h1m14 10h4m-1 1h2m-1 1h1m-1 1h1m-1 1h1m-1 1h1m-4 3h4m-8 1h1m10 1h6m-1 1h2m-10 1h1m8 0h1m-10 1h1m8 0h1m-10 1h1m8 0h1m-10 1h1m8 0h1m-10 1h1m8 0h1m-1 1h1m-9 2h4"/>
  <path stroke="#ad83aa" d="M81 21h2m8 0h8m-20 1h4m-4 1h4m0 1h8m8 0h4m-20 1h8m8 0h4m-3 1h3m-2 1h2m-20 1h4m-40 8h2m-2 1h2m-2 1h2M36 52h1m-1 1h1m-1 1h1m-1 1h1m9 5h4m-4 1h1m7 5h1m-1 1h1m-6 1h2m12 6h1m-1 1h1m-5 1h5m-5 1h5m-5 1h4"/>
  <path stroke="#ac83aa" d="M83 21h8m8 0h4m-20 1h16m2 0h2m-20 1h16m2 0h3m-23 1h2m8 0h8m-18 1h2m8 0h8m-17 1h17m-17 1h17m-18 1h2m4 0h8m3 0h1m2 0h2m-52 3h8m11 0h5m-29 1h25m-25 1h25m-25 1h25m-25 1h25m-12 1h12m-12 1h12m-12 1h12m-45 3h19m-19 1h19m-19 1h19m-19 1h19m-19 1h18m-18 1h18m-18 1h18m-17 1h17m-9 1h9m-8 1h8m-8 1h8m-7 1h7m-7 1h7m-7 1h7m-7 1h7m-8 1h8m-8 1h9m-9 1h5m3 0h1m4 3h3m-6 1h2m4 0h1m-7 1h1m5 0h1m-7 1h1m2 0h4m-7 1h8m-7 1h7m-8 1h1m2 0h5m-8 1h1m9 3h7m-5 1h6m-5 1h5m-5 1h4m-4 1h4"/>
  <path stroke="#ac84a8" d="M103 21h1m-5 1h2m-2 1h2m-42 8h8M47 61h2m2 1h1m-1 1h1m-5 4h2m7 5h2m-2 1h3m-3 1h3m-3 1h3"/>
  <path stroke="#a783ab" d="M104 21h1m-1 1h1m-1 1h1"/>
  <path stroke="#553560" d="M105 21h1m-1 1h1m-1 3h1M24 41h1m-1 1h1m-1 1h1m-1 1h1m-1 1h1m-1 1h1m-1 1h1m-1 1h1m98 43h1m-39 10h1m-1 1h1m-1 1h1m-1 1h1m-1 1h1m-1 1h1m-1 1h1m-23 33h1"/>
  <path stroke="#54345d" d="M74 23h1m-1 1h1m-1 1h1m-1 1h1M26 39h1m44 42h2m-2 1h2m-1 1h2m0 1h1m49 7h1m-51 8h1"/>
  <path stroke="#55355e" d="M105 23h1m-1 1h1m-62 7h1m40 77h1"/>
  <path stroke="#553562" d="M46 24h1m-1 1h1M23 52h1m-1 1h1m-1 1h1m-1 1h1m-1 9h1m-1 1h1m-1 1h1m-1 4h1m-1 19h1m39 53h1m-1 1h1"/>
  <path stroke="#513563" d="M49 24h2m-2 1h1M19 92h1m-1 1h1m67 8h1m-32 40h1"/>
  <path stroke="#aa83ae" d="M75 24h1m-1 1h1m0 1h1m-1 1h1m27 1h1m-30 1h1"/>
  <path stroke="#a983ab" d="M104 24h1m-60 8h1m-1 1h1m-1 1h1m-1 1h1m-21 6h1m-1 1h1m-1 1h1m-1 1h1m-1 1h1m-1 1h1m-1 1h1"/>
  <path stroke="#a982ad" d="M104 25h1m-1 1h1m-1 1h1m-1 2h1m-60 7h1m-1 1h1m-1 1h1m-1 1h1"/>
  <path stroke="#533662" d="M46 26h1m-1 1h1m-1 1h1M23 48h1m-1 3h1m-1 5h1m-1 1h1m-1 27h1m-1 1h1m-1 1h1m-1 1h1m4 4h7m28 50h1m-1 3h1m-1 1h1m-1 1h1m-1 1h1"/>
  <path stroke="#51365f" d="M69 26h4m-4 1h4m-4 1h4m-30 3h1m-18 1h1m-1 1h1m-1 1h1m-1 1h1m-1 1h1m-1 1h1m-1 1h1m7 61h1m11 2h1m42 5h2m-2 1h2m-2 1h2"/>
  <path stroke="#51365d" d="M73 26h1m-1 1h1m-1 1h1m41 71h1"/>
  <path stroke="#573462" d="M105 26h1m-1 1h1M24 73h1m-1 1h1m-1 1h1m-1 1h1m-1 1h1m-1 1h1m-1 1h1m-1 4h1m-1 1h1m-1 1h1m-1 1h1m-1 1h1m2 3h8"/>
  <path stroke="#51335f" d="M106 28h1m-64 4h1m-1 1h1m-1 1h1m-1 1h1m-1 1h1m-1 1h1m-1 1h1M23 72h1m-1 19h1m67 18h2m-29 33h1m-1 1h1m-1 1h1m-1 1h1m-1 1h1m-1 1h1"/>
  <path stroke="#51345d" d="M47 29h2m19 0h1m55 63h1m-1 1h1m-38 16h2m4 0h1m-30 32h1"/>
  <path stroke="#53335d" d="M49 29h19M43 39h1M23 71h1m42 10h1m-1 1h1m-1 1h1m57 11h1m-1 2h1m-1 1h1m-1 1h1m-1 1h1m-1 1h1m-1 1h1m-1 1h1m-1 1h1m-1 1h1m-1 1h1m-1 1h1m-1 1h1m-1 1h1m-1 1h1m-1 1h1m-1 1h1m-1 1h1m-1 1h1m-1 1h1m-1 1h1m-1 1h1m-1 1h1m-1 1h1m-1 1h1"/>
  <path stroke="#51345b" d="M69 29h3m-8 111h1"/>
  <path stroke="#53335b" d="M72 29h2m32 0h1m-22 80h1"/>
  <path stroke="#54325b" d="M74 29h1"/>
  <path stroke="#ac81ab" d="M103 29h1M45 60h1"/>
  <path stroke="#57355e" d="M105 29h1"/>
  <path stroke="#4a3b55" d="M25 30h1"/>
  <path stroke="#4c3757" d="M43 30h1m1 72h1m-1 1h1m-24 6h2"/>
  <path stroke="#a583a8" d="M45 30h1"/>
  <path stroke="#a985ac" d="M46 30h1"/>
  <path stroke="#a887ad" d="M47 30h3"/>
  <path stroke="#aa86ad" d="M50 30h2m19 0h1"/>
  <path stroke="#ab85ad" d="M52 30h7m13 0h3"/>
  <path stroke="#ab85ab" d="M59 30h8"/>
  <path stroke="#aa86ab" d="M67 30h4"/>
  <path stroke="#956c95" d="M75 30h1M45 40h1m68 0h1M80 78h4m-5 1h5"/>
  <path stroke="#966b95" d="M76 30h3m-4 2h4m-4 1h4m-4 1h4m-4 1h4m-4 1h4m-4 1h4m-4 1h4m-4 1h4m-30 1h11m45 0h9m-69 1h1m4 0h9m55 0h1m-70 1h1m4 0h9m55 0h1m-70 1h1m4 0h9m55 0h1m-70 1h1m68 0h1m-1 1h1m-1 1h1m-1 1h1m-1 1h1m-1 1h1m7 1h1m0 1h1m-79 6h1m-1 1h1m53 0h2m4 0h1m-61 1h1m1 0h1m51 0h2m3 0h20m-25 1h2m2 0h2m-6 1h2m2 0h1m-5 1h2m2 0h1m-43 2h6m37 0h1m-44 1h6m37 0h1m-14 1h7m6 0h1m-50 1h1m35 0h7m-32 3h5m-6 1h6m-6 1h1m13 4h5m-5 1h5m-5 1h1m-3 1h2M47 95h2"/>
  <path stroke="#966a97" d="M79 30h1m14 0h6M47 40h2m0 1h1m-1 1h1m-1 1h1m-1 1h2m-6 1h1m3 0h2m-6 1h1m3 0h2m-6 1h1m3 0h2m-6 1h1m3 0h2m-6 1h1m3 0h2m-6 1h1m3 0h2m-6 1h1m3 0h2m-6 1h1m3 0h2m72 0h1m-79 1h1m3 0h2m72 0h1m-79 1h1m3 0h2m-6 1h1m-1 1h1m13 8h2m-1 1h1m22 1h1m-1 1h2m19 0h1m-50 1h1m-1 1h3m-33 2h1m-1 1h1m53 2h5m-5 1h5m-10 4h3M45 94h1m-1 1h1m-1 1h1m1 0h2m-2 1h2"/>
  <path stroke="#986a97" d="M80 30h14m6 0h3m0 1h1m-25 1h20m2 0h2m-24 1h20m2 0h2m-24 1h20m2 0h2m-24 1h20m2 0h2m-24 1h20m2 0h2m-24 1h20m2 0h2m-24 1h20m2 0h2m-24 1h20m2 0h2m-43 1h45m-46 1h55m-55 1h55m-55 1h55m-63 1h63m-63 1h63m-63 1h63m-63 1h63m-67 1h2m2 0h63m-67 1h2m2 0h63m-67 1h2m2 0h64m-68 1h2m2 0h64m-68 1h2m2 0h64m7 0h1m-76 1h2m2 0h64m7 0h1m-76 1h2m2 0h73m-77 1h77m-75 1h1m9 0h48m-58 1h1m9 0h48m-60 1h8m4 0h40m2 0h4m2 0h17m-74 1h5m4 0h40m2 0h3m-49 1h2m2 0h40m2 0h2m-48 1h2m2 0h40m2 0h2m-48 1h2m2 0h40m2 0h2m-48 1h2m2 0h40m1 0h4m-49 1h1m11 0h18m6 0h13m-49 1h1m2 0h2m7 0h18m6 0h8m3 0h2m-49 1h2m2 0h24m1 0h3m16 0h1m-48 1h1m2 0h24m2 0h3m15 0h1m-48 1h7m2 0h18m4 0h12m3 0h1m-45 1h5m1 0h1m1 0h17m1 0h2m-59 1h2m42 0h10m-10 1h10m-54 1h7m32 0h17m-56 1h7m31 0h18m-18 1h14m-14 1h14m-14 1h1m9 0h2m-12 1h1m9 0h2m-12 1h1m9 0h2m-35 7h1m-6 1h6m-6 1h6m0 1h1m2 3h5m-2 4h1m-1 1h2m-2 1h2m-2 1h4"/>
  <path stroke="#996b98" d="M103 30h1m-25 1h22m21 20h1m-77 4h1m-1 1h1m-1 1h1m-1 1h1m16 10h2m-2 1h1m1 0h1m-37 2h5m-8 1h1m-1 1h1"/>
  <path stroke="#986f9a" d="M104 30h1"/>
  <path stroke="#6c4870" d="M105 30h1m8 9h1m0 1h1m-11 29h1M75 80h3m0 1h1m-1 1h1m-1 1h1m-24 37h1m8 0h1m-3 19h1"/>
  <path stroke="#69486e" d="M106 30h1m25 20h2"/>
  <path stroke="#6c486e" d="M107 30h7m-8 1h1m16 10h1m-1 1h1m-1 1h1m-1 1h1m-1 1h1m-1 1h1m-1 1h1m0 2h1m0 1h1m5 1h3m-1 1h1m-8 1h1m6 0h1m-3 1h2m-2 1h1M89 70h2m13 1h1m18 5h2m-2 1h2m0 4h1m-1 1h1m-1 1h1m-48 1h1m46 0h1m-1 1h1m-1 1h1m-22 3h1m-26 11h2m-2 1h2m-2 1h2m-2 1h2m-2 1h2m-2 1h2m-2 1h2m-2 1h2m-2 1h2m-2 1h2m-2 1h2m-2 1h2m-2 5h2m-2 1h2m-2 1h2m-2 1h2m-20 1h2m16 0h2m-22 1h2m2 0h1m15 0h2m-18 1h1m15 0h2m-18 1h1m15 0h2m-18 1h1m15 0h2m-18 1h1m15 0h2m-18 1h1m15 0h2m-18 1h1m15 0h2m-2 5h2m-2 1h2m-24 3h2m-2 1h2m4 1h1m15 0h2m-22 1h3"/>
  <path stroke="#6a496e" d="M114 30h1m-1 2h1m-1 1h1m-1 1h1m-1 1h1m-1 1h1m-1 1h1m-1 1h1m1 2h7m11 13h1m-1 1h1m-1 1h1m-1 1h1m-1 1h1m-1 1h1m-1 1h1m-1 1h1m-1 1h1m-1 1h1m-1 1h1m-1 1h1m-1 1h1m-1 1h1m-1 1h1m-1 1h1m-1 1h1m-1 1h1m-1 1h1m-1 1h1m-1 1h1m-1 1h1m-1 1h1m-1 1h1m-1 1h1m-1 1h1m-1 1h1m-1 1h1m-1 1h1m-1 1h1m-1 1h1m-60 1h3m56 0h1m-60 1h1m58 0h1m-60 1h1m58 0h1m-60 1h1m58 0h1m-60 1h1m58 0h1m-60 1h1m58 0h1m-60 1h1m58 0h1m-60 1h1m49 0h1m8 0h1m-60 1h1m58 0h1m-60 1h1m58 0h1m-60 1h1m58 0h1m-60 1h1m58 0h1m-60 1h1m58 0h1m-60 1h1m58 0h1m-60 1h1m58 0h1m-60 1h1m58 0h1m-59 1h3m5 0h1m49 0h1m-58 1h2m55 0h1m-58 1h2m55 0h1m-58 1h2m55 0h1m-58 1h2m55 0h1m-58 1h2m55 0h1m-58 1h2m55 0h1m-58 1h2m55 0h1m-58 1h2m5 0h1m49 0h1m-58 1h2m55 0h1m-58 1h2m55 0h1m-58 1h2m55 0h1m-59 1h2m56 0h1m-60 1h2m57 0h1m-60 1h2m57 0h1m-60 1h3m56 0h1m-58 1h2m55 0h1m-58 1h2m55 0h1m-58 1h2m55 0h1m-58 1h2m47 0h3m2 0h3m-57 1h2m-24 1h1m21 0h2m-24 1h1m21 0h2m-24 1h1m21 0h2m-24 1h1m21 0h2m-24 1h1m21 0h2m-24 1h1m21 0h2m-24 1h1m21 0h2m-24 1h1m8 0h1m11 0h2m-23 1h1m8 0h1m10 0h2m-22 1h1m8 0h1m10 0h2m-22 1h1m8 0h1m10 0h3m-23 1h1m8 0h1m12 0h2m-24 1h1m8 0h1m12 0h2m-24 1h1m8 0h1m12 0h1m-23 1h1m8 0h1m11 0h1m-22 1h1m8 0h1m10 0h1m-21 1h1m8 0h1m10 0h1m-21 1h1m8 0h1m11 0h3m-21 1h1m21 0h4"/>
  <path stroke="#4a3b52" d="M124 30h1M55 149h1"/>
  <path stroke="#a882a8" d="M45 31h1"/>
  <path stroke="#ab83a7" d="M46 31h1"/>
  <path stroke="#aa85a8" d="M67 31h3M43 58h1m5 4h2m-1 1h1"/>
  <path stroke="#976c96" d="M75 31h4m25 0h1m-59 9h1m-1 19h1m41 10h14m-18 2h1m-1 1h1m-1 1h1"/>
  <path stroke="#996a9a" d="M101 31h2M34 71h1m-9 3h1m-1 1h1m-1 1h1m-1 1h1"/>
  <path stroke="#6f496f" d="M105 31h1M86 71h1m16 0h1M86 89h15m24 0h1m-42 2h1m-1 1h1m-1 1h1"/>
  <path stroke="#6d4a6d" d="M107 31h1M87 71h2m12 0h2m2 0h1m-20 1h1m-1 1h1m-1 1h1m-1 1h1m-1 1h1m-1 1h1m-1 1h1m-1 1h1m16 9h1m22 0h1m-43 1h1m-1 9h1"/>
  <path stroke="#6f496d" d="M108 31h6m9 18h1m-23 40h2"/>
  <path stroke="#6d4a6f" d="M114 31h1M84 94h1m40 0h1m-42 1h1m40 0h1m-42 1h1m40 0h1m-42 1h1"/>
  <path stroke="#986999" d="M99 32h2m-2 1h2m-2 1h2m-2 1h2m-2 1h2m-2 1h2m-2 1h2m-2 1h2m-54 5h2m-2 1h2m-2 1h2m-2 1h2m1 9h1m6 0h2m-9 1h1m6 0h2m-4 1h2m-2 1h2m0 3h2m-2 1h2m-3 1h3m-3 1h2m27 3h2m16 0h1m-75 2h5m0 2h1m-1 1h1m-8 1h8m-8 1h7m-7 1h7m32 0h9m-48 1h7m32 0h9m-9 1h9m-33 3h1m-7 1h7m-7 1h7m-7 1h7m-7 1h6m-6 1h1m-1 1h1m-1 1h7m8 8h3m-3 1h3m-7 1h2m4 0h1"/>
  <path stroke="#986896" d="M103 32h1m-1 1h1m-1 1h1m-1 1h1m-1 1h1m-1 1h1m-1 1h1m-1 1h1M44 81h1m-1 1h1m-1 1h1m-1 1h1m-1 1h1m-1 1h1m-1 1h1m1 5h1m-1 1h1m-1 1h1"/>
  <path stroke="#986a95" d="M104 32h1m-1 1h1m-1 1h1m-1 1h1m-1 1h1m-1 1h1m-1 1h1m-1 1h1m10 11h7m-7 2h7m-7 1h7m-16 5h1m-59 1h2m49 4h1m-13 1h4m-4 1h4m-4 1h4m7 0h1m-11 1h3m7 0h1m-18 3h4m-4 1h3m-1 1h1m-1 1h1m-7 3h2m-2 1h2m-2 1h2M47 94h2"/>
  <path stroke="#6e486e" d="M105 32h1m-1 1h1m-1 1h1m-1 1h1m-1 1h1m-1 1h1m-1 1h1m1 1h7m1 2h1m-1 1h1m-1 1h1m-1 1h1m-1 1h1m-1 1h1m-1 1h1m-1 1h1m0 1h7m2 2h1m-1 1h1m5 0h2m-2 1h2m-7 1h1m-1 1h1m-2 1h1m4 0h1m-6 1h1m4 0h1m-6 1h1m-1 1h1m-20 1h19m-20 6h1m-1 1h1m-19 3h2m12 0h2m-18 2h1m-1 1h1m-1 1h1m-1 1h1m-1 1h1m19 0h18m-38 1h1m19 0h18m-38 1h1m19 0h20m-20 1h20m-24 1h2m-19 1h1m16 0h2m1 0h1m-24 1h4m16 0h2m1 0h1m-25 1h5m16 0h2m1 0h1m-26 1h1m21 0h2m1 0h1m-4 1h2m1 0h1m-4 1h2m1 0h1m-1 1h1m-1 1h1m-2 1h1m-20 1h1m-29 30h5m2 0h1"/>
  <path stroke="#6b486a" d="M106 32h1m-1 1h1m-1 1h1m-1 1h1m-1 1h1m-1 1h1m-1 1h1M85 88h18m23 3h1m-44 1h1m-1 1h1"/>
  <path stroke="#6c496c" d="M107 32h7m-7 1h7m-7 1h7m-7 1h7m-7 1h7m-7 1h7m-7 1h7m2 3h7m-7 1h7m-7 1h7m-7 1h7m-7 1h7m-7 1h7m-7 1h7m-7 1h7m3 3h1m-1 1h1m3 0h1m-4 1h1m1 0h2m-2 1h2m-2 1h2m-5 1h3m2 0h3m-8 1h1m4 0h3m-8 1h1m2 0h5m-8 1h1m2 0h5m-9 1h2m1 0h2m1 0h3m-27 1h20m2 0h1m1 0h3m-10 1h3m2 0h5m-9 1h3m1 0h5m-27 1h16m2 0h4m2 0h3m-27 1h16m2 0h4m2 0h3m-28 1h17m2 0h4m2 0h3m-28 1h17m2 0h4m2 0h3m-27 1h16m2 0h4m2 0h3m-27 1h16m2 0h4m2 0h3m-43 1h2m12 0h1m1 0h16m2 0h4m2 0h3m-27 1h16m2 0h4m2 0h3m-47 1h36m2 0h4m2 0h3m-47 1h36m2 0h4m2 0h3m-47 1h42m2 0h3m-47 1h42m2 0h3m-47 1h18m20 0h4m2 0h3m-47 1h18m20 0h4m2 0h3m-47 1h18m20 0h4m2 0h3m-47 1h18m20 0h4m2 0h3m-48 1h15m2 0h2m20 0h1m3 0h5m-49 1h16m2 0h1m25 0h5m-49 1h16m2 0h1m25 0h5m-49 1h16m2 0h1m25 0h5m-49 1h16m2 0h1m25 0h5m-55 1h1m5 0h16m2 0h1m25 0h5m-55 1h22m2 0h1m25 0h5m-55 1h22m2 0h1m25 0h5m-55 1h6m42 0h2m2 0h3m-55 1h5m1 0h1m40 0h3m2 0h3m-55 1h4m43 0h1m2 0h5m-55 1h4m46 0h5m-55 1h4m43 0h8m-55 1h4m43 0h8m-55 1h4m43 0h2m1 0h5m-55 1h4m43 0h2m1 0h5m-55 1h4m43 0h8m-55 1h4m43 0h8m-55 1h4m43 0h3m2 0h3m-55 1h4m1 0h1m41 0h3m2 0h3m-53 1h3m42 0h3m2 0h3m-53 1h3m42 0h3m2 0h3m-53 1h2m43 0h3m2 0h3m-53 1h2m43 0h3m2 0h3m-53 1h3m42 0h3m2 0h3m-53 1h3m42 0h3m2 0h3m-53 1h3m42 0h3m2 0h3m-53 1h3m42 0h3m2 0h3m-53 1h2m43 0h3m2 0h3m-53 1h2m43 0h3m2 0h3m-53 1h2m43 0h3m2 0h3m-53 1h2m43 0h3m2 0h3m-55 1h5m42 0h3m2 0h3m-55 1h5m42 0h3m2 0h3m-55 1h5m42 0h3m2 0h3m-55 1h5m42 0h3m2 0h3m-53 1h3m42 0h3m2 0h3m-53 1h3m42 0h3m2 0h3m-53 1h3m42 0h3m2 0h3m-53 1h3m-3 1h3m-28 1h3m22 0h3m-28 1h5m20 0h3m-28 1h5m20 0h3m-28 1h5m20 0h3m-28 1h5m20 0h3m-28 1h5m20 0h3m-28 1h5m20 0h3m-28 1h3m4 0h1m15 0h5m-28 1h3m4 0h1m15 0h5m-28 1h3m4 0h1m15 0h5m-28 1h3m4 0h1m15 0h5m-28 1h3m4 0h1m17 0h3m-28 1h3m4 0h1m17 0h3m-28 1h3m4 0h1m15 0h5m-28 1h4m3 0h1m15 0h5m-28 1h1m2 0h2m18 0h2m-25 1h1m2 0h2m1 0h2m15 0h3m-26 1h1m1 0h2m21 0h2"/>
  <path stroke="#6f476e" d="M105 39h1m9 10h1m9 5h1m-1 1h1m-21 5h1M85 71h1m-5 9h4m-4 1h3"/>
  <path stroke="#6d466c" d="M106 39h1m18 49h1m-43 2h1m-1 1h1"/>
  <path stroke="#52385a" d="M24 40h1"/>
  <path stroke="#a684ab" d="M25 40h1"/>
  <path stroke="#6a4970" d="M123 40h1m0 1h1m-1 1h1m-1 1h1m-1 1h1m-1 1h1m-1 1h1m-1 1h1m9 4h1m-1 1h1M75 81h3m-3 1h3m-3 1h3m-3 17h1m-1 1h2m-2 1h2m-2 1h2m-2 1h2m-2 1h2m-2 1h2m-2 1h2m-2 1h2m-2 1h2m-2 1h2m-2 1h2m-2 1h1m-1 4h2m-2 1h2m-2 1h2m-2 1h2m-2 1h2m-13 1h1m10 0h2m-13 1h1m10 0h2m-13 1h1m10 0h2m-13 1h1m10 0h2m-13 1h1m10 0h2m-13 1h1m10 0h2m-13 1h1m10 0h2m-2 1h1m-1 4h2m-2 1h2m-2 1h2m-2 1h1m-1 3h1m-20 1h2m5 0h2m11 0h4"/>
  <path stroke="#694a70" d="M124 40h1m-70 99h1m19 0h1"/>
  <path stroke="#43294b" d="M125 40h1m9 10h1m-32 50h1"/>
  <path stroke="#412a4b" d="M126 40h1m-33 70h1"/>
  <path stroke="#402849" d="M127 40h1m4 0h2m0 7h1m-1 1h1m9 9h1m-1 1h1m-1 1h1m-1 1h1m-1 1h1m-1 1h1M36 99h7m69 0h3m-81 6h1m-1 1h1m-1 1h1m-1 1h1m-1 1h1m61 0h1m-63 1h1m-1 1h1m-1 1h1m-1 1h1m-1 1h1m-1 1h1m-1 1h1m-1 1h1m-1 1h1m-9 1h8m102 0h8m-29 1h1m-1 1h1m-1 1h1m-1 1h1m-1 1h1m-1 1h1m-1 1h1m18 2h1m-11 1h7m-37 8h1m-1 1h1m-10 1h1m3 0h2m-7 2h1m-1 1h1m-1 1h1m-1 1h1m-17 5h16"/>
  <path stroke="#402947" d="M128 40h4m10 10h1m1 2h1m-1 11h1m-1 1h1m-1 1h1m-1 1h1m-1 1h1m-1 1h1m-1 1h1m-1 1h1m-1 1h1m-1 1h1m-1 1h1m-1 1h1m-1 1h1m-1 1h1m-1 1h1m-1 1h1m-1 1h1m-1 1h1m-1 1h1m-1 1h1m-1 1h1m-1 1h1m-1 1h1m-1 1h1m-1 1h1m-1 1h1m-1 1h1m-1 1h1m-1 1h1m-1 1h1m-1 1h1m-1 1h1m-1 1h1m-1 1h1m-1 1h1m-1 1h1M43 99h1m64 0h4m32 0h1m-1 1h1m-1 1h1m-1 1h1m-1 1h1m-1 1h1m-1 1h1m-1 1h1m-1 1h1m-41 1h1m39 0h1m-48 1h5m42 0h1m-1 1h1m-51 1h1m49 0h1m-51 1h1m49 0h1m-120 1h1m68 0h1m49 0h1m-120 1h1m68 0h1m49 0h1m-120 1h1m68 0h1m49 0h1m-120 1h1m68 0h1m49 0h1m-120 1h1m68 0h1m49 0h1m-120 1h1m68 0h1m49 0h1m-51 1h1m-1 1h1m-1 1h1m39 0h1m-41 1h1m39 0h1m-41 1h1m39 0h1m-41 1h1m39 0h1m-41 1h1m39 0h1m-41 1h1m39 0h1m-41 1h1m39 0h1m-41 1h1m-1 1h1m-1 1h1m-1 1h1m-1 1h1m-1 1h1m-1 1h1m-1 1h1m-1 1h1m-8 3h2m-22 10h1"/>
  <path stroke="#3b2c43" d="M134 40h1m-20 89h1m-32 20h1"/>
  <path stroke="#976c98" d="M46 41h1m-1 1h1m-1 1h1m-1 1h1m-1 1h1m-1 1h1m-1 1h1m-1 1h1m-1 1h1m-1 1h1m-1 1h1m-1 1h1m-1 1h1m-1 1h1m39 15h2m14 0h2"/>
  <path stroke="#966a99" d="M47 41h2m-2 1h2m-2 1h2m16 36h1m6 0h2M44 89h1m0 3h1m-1 1h1"/>
  <path stroke="#46264f" d="M125 41h1m-1 1h1m-1 1h1m-1 1h1m-1 1h1m-1 1h1m-1 1h1"/>
  <path stroke="#442751" d="M126 41h1m-1 1h1m-1 1h1m-1 1h1m-1 1h1m-1 1h1m-1 1h1M43 91h1m-19 11h1m-1 1h1m-1 1h1m60 6h3m2 0h3"/>
  <path stroke="#43264f" d="M127 41h2m2 0h3m-7 1h2m2 0h3m-7 1h2m2 0h3m-7 1h2m2 0h3m-7 1h2m2 0h3m-7 1h2m2 0h3m-7 1h7m-6 1h1m2 0h2m3 3h1m2 1h1m-1 1h2m-5 1h1m4 0h1m-6 1h1m4 0h2m-7 1h3m2 0h3m-8 1h3m2 0h3m-8 1h3m2 0h3m-8 1h3m2 0h3m-8 1h3m2 0h3m-8 1h3m2 0h3m-8 1h3m2 0h3m-8 1h3m2 0h3m-8 1h8m-8 1h8m-8 1h8m-8 1h8m-8 1h8m-8 1h8m-8 1h8m-8 1h8m-8 1h8m-8 1h8m-8 1h8m-8 1h8m-8 1h8m-8 1h8m-8 1h8m-8 1h8m-8 1h8m-8 1h8m-8 1h8m-8 1h8m-8 1h8m-8 1h8m-8 1h8m-8 1h8m-8 1h8m-8 1h8m-38 1h1m29 0h8m-39 1h1m30 0h8M35 92h8m63 0h1m29 0h8M35 93h8m63 0h1m29 0h8M35 94h8m63 0h9m21 0h8M35 95h8m64 0h8m21 0h8M35 96h8m68 0h4m21 0h8M35 97h8m68 0h4m21 0h8M35 98h9m67 0h4m21 0h8m-8 1h8m-117 1h7m34 0h3m65 0h8m-117 1h7m33 0h2m28 0h6m33 0h8m-118 1h8m33 0h2m26 0h4m3 0h1m33 0h8m-118 1h8m33 0h2m26 0h4m3 0h1m33 0h8m-118 1h8m33 0h2m26 0h4m37 0h8m-118 1h8m33 0h2m26 0h5m36 0h8m-117 1h7m33 0h2m67 0h8m-117 1h7m33 0h2m28 0h1m38 0h8m-117 1h7m33 0h2m26 0h2m3 0h3m33 0h8m-117 1h7m33 0h2m67 0h8m-117 1h7m33 0h2m67 0h8m-117 1h7m33 0h2m17 0h3m2 0h2m43 0h8m-118 1h8m33 0h4m15 0h3m2 0h3m42 0h8m-118 1h8m33 0h4m15 0h3m2 0h3m42 0h8m-118 1h8m33 0h4m15 0h1m4 0h3m42 0h8m-118 1h8m33 0h4m15 0h1m4 0h3m42 0h8m-118 1h8m33 0h2m17 0h1m4 0h3m42 0h8m-118 1h8m33 0h2m17 0h1m4 0h3m42 0h8m-118 1h8m33 0h2m17 0h1m4 0h3m42 0h8m-77 1h2m17 0h1m4 0h3m-27 1h2m17 0h1m4 0h3m22 0h9m-58 1h2m17 0h1m4 0h3m22 0h11m2 0h1m-63 1h2m17 0h1m4 0h3m22 0h11m2 0h2m-64 1h2m17 0h1m4 0h3m22 0h11m2 0h2m-64 1h2m17 0h1m4 0h3m22 0h11m2 0h2m-64 1h2m17 0h1m4 0h3m22 0h11m2 0h2m-64 1h2m17 0h1m4 0h3m22 0h11m2 0h2m-64 1h2m17 0h1m4 0h3m22 0h11m2 0h5m-67 1h4m15 0h1m4 0h2m30 0h8m-64 1h4m15 0h1m4 0h2m-26 1h4m15 0h1m4 0h2m-26 1h4m15 0h1m4 0h2m-26 1h2m17 0h1m4 0h2m-26 1h2m17 0h1m4 0h2m-26 1h2m17 0h1m4 0h2m-26 1h2m17 0h8m-27 1h4m15 0h3m4 0h1m-27 1h4m15 0h1m6 0h1m-27 1h2m17 0h1m6 0h1m-27 1h2m-4 1h1m1 0h7m-7 1h8m-6 1h14m-18 1h1m3 0h14m-18 1h1m1 0h16m-18 1h1m1 0h16m-16 1h16m-16 1h16m-18 1h19"/>
  <path stroke="#45254f" d="M129 41h2m-2 1h2m-2 1h2m-2 1h2m-2 1h2m-2 1h2m-26 44h1m-63 4h1m-1 2h1m-1 1h1m27 3h1m30 0h2m-38 1h1m-1 1h1m34 0h1m-36 1h1m34 0h1m-3 1h2m-6 2h2m-2 1h2m0 1h3m-29 4h1m-7 1h1m5 0h2m-8 1h1m5 0h2m-8 1h1m5 0h1m-7 1h1m-1 1h1m-1 1h1m64 3h1m-60 7h1m-1 1h2m-2 1h2m-2 1h1m-1 5h3m15 0h2m-20 1h3m15 0h2m-2 1h1m-7 3h1m-1 1h1m-1 1h1"/>
  <path stroke="#3e2949" d="M134 41h1m-1 1h1m-1 1h1m-1 1h1m-1 1h1m-1 1h1m5 4h2M34 101h1m-1 1h1m-1 1h1m-1 1h1m-10 7h1m89 16h1m-1 1h1m0 1h8m-33 10h3m-10 8h1m-1 1h1"/>
  <path stroke="#ad83a8" d="M26 48h1m20 20h2m7 8h3m-3 1h3m-3 1h3"/>
  <path stroke="#6e4b6e" d="M123 48h1"/>
  <path stroke="#6c4a6f" d="M124 48h1m0 44h1m-1 1h1m-1 4h1m-1 1h1m-1 1h1m-1 1h1m-1 1h1m-1 1h1m-1 1h1m-1 1h1m-1 1h1m-1 1h1m-1 1h1m-1 1h1m-1 1h1m-1 1h1m-1 1h1m-42 1h1m40 0h1m-42 1h1m40 0h1m-42 1h1m40 0h1m-42 1h1m40 0h1m-42 1h1m40 0h1m-42 1h1m40 0h1m-42 1h1m40 0h1m-42 1h1m-1 1h1m-1 1h1m-1 1h1m-1 1h1m-1 1h1m-1 1h1m-1 1h1m-1 1h1m-1 1h1m-1 1h1m-1 1h1m-1 1h1m-1 1h1m-1 1h1m-1 1h1m-1 1h1m-1 3h1"/>
  <path stroke="#44274f" d="M125 48h1"/>
  <path stroke="#42264f" d="M126 48h1m10 3h5m-2 1h1m1 2h1m-6 1h1M35 91h8m63 4h1m-4 6h1m-1 2h1m-1 1h1m-1 1h1m-3 1h2m-3 1h2m-77 2h1m0 1h1m-1 1h1m39 1h1m22 0h2m-25 1h1m22 0h2m-25 1h1m22 0h2m-25 1h1m22 0h2m-25 1h1m22 0h2m-25 1h1m22 0h2m-25 1h1m22 0h2m-25 1h1m22 0h2m-2 1h2m-2 1h2m36 0h2m-40 1h2m36 0h2m-40 1h2m36 0h2m-40 1h2m36 0h2m-40 1h2m36 0h2m-40 1h2m36 0h2m-40 1h2m36 0h2m-40 1h2m25 0h7m-34 1h2m-2 1h2m-2 1h2m-2 1h2m-2 1h2m-2 1h2m-26 7h1m-1 1h1m1 0h2m-2 1h2"/>
  <path stroke="#432551" d="M127 48h1M43 92h1m63 0h8m-72 1h1m63 0h8m-89 7h1m40 0h1m-42 1h1m68 0h2m4 3h2m-3 1h3m-6 1h3m-2 1h2m-13 7h2m-2 1h2m-2 1h2m-2 1h2m-2 1h2m-2 1h2m-2 1h2m-2 1h2m-2 1h2m-2 1h2m-2 1h2m-2 1h2m-2 1h2m-2 1h2m-2 1h2m42 0h2m-46 1h2m-2 1h2m-2 1h2m-2 1h2m-2 1h2m-2 1h2m3 3h1m-3 1h3m-10 6h1m-1 1h1m-19 1h1m17 0h1m-19 1h1m17 0h1"/>
  <path stroke="#43264d" d="M129 48h2m11 3h2m-8 1h1m6 0h1m-8 1h1m2 1h2m2 0h1m-6 1h2m3 0h1m-5 1h2m-2 1h2m-2 1h2m-2 1h2m-2 1h2m-2 1h2m-2 1h2m-2 1h2m-35 33h5m-5 1h5m-4 1h4m-42 3h2m-2 1h2m28 0h2m-32 1h2m28 0h2m-35 1h1m2 0h2m-5 1h1m2 0h2m-5 1h1m2 0h2m32 0h1m-38 1h1m2 0h2m32 0h1m-38 1h1m2 0h2m32 0h1m-38 1h1m2 0h2m-5 1h1m2 0h2m-5 1h1m2 0h2m22 0h1m-25 5h2m-2 1h2m-2 1h2m-2 1h2m-2 1h2m56 0h2m-60 1h2m60 0h3m-65 1h2m60 0h3m-65 1h2m60 0h3m-65 1h2m60 0h3m-65 1h2m60 0h3m-65 1h2m60 0h3m-65 1h2m22 1h1m-1 1h1m-1 1h1m-1 1h1m-25 1h2m22 0h1m-25 1h2m22 0h1m-25 1h2m22 0h1m-25 1h2m16 2h1m-19 1h2m14 0h1m1 0h1m-19 1h2m3 1h2m-1 1h8"/>
  <path stroke="#452451" d="M133 48h1m-68 52h1m66 28h1m-43 8h2m-2 1h1"/>
  <path stroke="#553763" d="M23 49h1m1 42h1"/>
  <path stroke="#593762" d="M24 49h1"/>
  <path stroke="#ab82ab" d="M25 49h1"/>
  <path stroke="#45264b" d="M125 49h1m-52 51h1m-2 1h2m-2 1h2m-2 1h2m-2 1h2m-2 1h2m-2 1h2m-2 1h2m-1 5h1m-1 1h1m-1 1h1m-2 1h2m-2 1h2m-2 1h2m-2 1h2m-2 1h2m-2 1h2m56 0h3m-61 1h2m-2 1h2m-2 1h2m-1 5h1m-1 1h1m-1 1h1m-2 1h2m-2 1h2m-2 1h2m-2 1h2m-1 1h1m-1 3h1m-1 1h1m5 1h3"/>
  <path stroke="#42254c" d="M126 49h1m-61 79h1m-1 1h1m-1 1h1m-1 1h1m-1 1h1m-1 1h1m-1 1h1m-1 1h1m-1 1h1m-1 1h1m-1 2h1"/>
  <path stroke="#44244c" d="M127 49h2m2 0h2m-28 47h1m-1 1h1m-1 1h1m-41 22h1m-1 1h1m-1 1h1m-1 1h1m-1 1h1m-1 1h1m-1 1h1m-1 1h1m-1 1h1m0 10h1m-2 1h1"/>
  <path stroke="#42254a" d="M129 49h2"/>
  <path stroke="#44244e" d="M133 49h1m-29 45h1m-1 1h1"/>
  <path stroke="#40264a" d="M134 49h1"/>
  <path stroke="#54325f" d="M24 50h1m-1 6h1m-1 33h1m0 1h1"/>
  <path stroke="#815787" d="M25 50h1"/>
  <path stroke="#835486" d="M26 50h2m14 10h1m-16 9h4m23 1h1m-1 3h1m-1 1h1m-1 1h1m-1 1h1m-29 4h1m29 0h4m-34 1h1m29 18h1"/>
  <path stroke="#835488" d="M28 50h6m0 1h1m-1 5h1m-1 1h1m-1 1h1m-1 1h1m0 1h7m-15 8h4m13 0h1m-14 1h4m11 1h1m7 2h1m0 8h1m4 0h3m-37 2h1m-1 1h1m-1 1h1m-1 1h1m-1 1h1m-1 1h1m19 2h1m8 7h1m-1 1h1m-1 1h2m0 1h2m4 0h1"/>
  <path stroke="#835484" d="M34 50h1"/>
  <path stroke="#966b93" d="M123 50h1"/>
  <path stroke="#926c92" d="M124 50h1"/>
  <path stroke="#69486c" d="M126 50h2m3 0h1m-48 51h1m-1 1h1m-1 1h1m-1 1h1m-1 1h1m-1 1h1m-1 1h1"/>
  <path stroke="#69486a" d="M128 50h3M83 94h1m-1 1h1m-1 1h1m-1 1h1"/>
  <path stroke="#68496e" d="M134 50h1"/>
  <path stroke="#402a4b" d="M136 50h3"/>
  <path stroke="#3d2a49" d="M139 50h1"/>
  <path stroke="#402945" d="M143 50h1m0 1h1"/>
  <path stroke="#3d2c41" d="M144 50h1m-41 59h1"/>
  <path stroke="#563361" d="M24 51h1m1 39h1m22 10h5m35 0h6m-41 1h1m-1 1h1m-1 1h1m-1 1h1m-1 1h1m-1 1h1m-1 1h1m-1 1h1m-1 1h1m-1 1h1m-1 1h1m-1 1h1m-1 1h1m-1 1h1m-1 1h1m-1 1h1m-1 1h1m-1 1h1"/>
  <path stroke="#825689" d="M25 51h1m-1 17h1"/>
  <path stroke="#83538a" d="M26 51h1m0 1h7m-7 1h6m-6 1h6m-6 1h7m-3 13h4m8 0h1m11 13h8m-8 1h8m-8 1h8m-17 5h1m14 0h1m-1 1h2m-2 1h2m-2 1h2m-2 1h2m-2 1h2m-7 3h2m-2 1h3m-2 1h2m4 0h1"/>
  <path stroke="#84528a" d="M27 51h7m-7 5h7m-7 1h7m-7 1h7m-7 1h7m-7 1h8m-8 1h16m-16 1h16m-16 1h16m-16 1h16m-16 1h16m-16 1h16m-16 1h16m-8 1h8m-8 1h8m-7 1h8m-8 1h8m-8 1h18m-18 1h18m-11 1h11m-11 1h11m-11 1h11m-11 1h11m-11 1h11m-9 1h9m-8 1h3m2 0h4m-9 1h3m2 0h4m-9 1h3m2 0h4m-9 1h3m2 0h4m-9 1h3m2 0h13m-18 1h3m2 0h13m-37 1h6m13 0h3m2 0h12m-36 1h6m13 0h4m1 0h12m-14 1h4m1 0h2m1 0h4m1 0h2m-17 1h2m6 0h1m1 0h4m2 0h1m-8 1h5m2 0h1m-8 1h5m2 0h1m-8 1h5m2 0h1m-8 1h5m2 0h1m-8 1h8m-8 1h8m-6 1h1m2 0h3m-3 1h3m-3 1h2m-4 1h2"/>
  <path stroke="#9a6a98" d="M115 51h7M26 70h1"/>
  <path stroke="#936b92" d="M124 51h1"/>
  <path stroke="#6c4969" d="M127 51h2m-2 1h2m-1 1h1m-2 4h2m-2 1h2m-2 1h2m-23 3h2m-2 1h1m-1 1h1m22 0h2m-25 1h1m22 0h2m-2 1h2m-2 1h2m-2 1h2m-2 1h2m-2 1h2m-2 1h2m-2 1h2m-2 1h2m-2 1h2m-2 1h2m-2 1h2m-2 1h2m-2 1h2m-2 1h2m-4 1h2m-2 1h2m-2 1h2m-2 1h2m-2 1h2m-2 1h2m-2 1h2m-2 1h2m-46 23h1m-1 1h1m-25 17h2m-2 1h2m-2 1h2m-2 1h2m-2 1h2m-2 1h2m-2 1h2m-1 1h1m0 1h2m18 0h3m-23 1h1m20 0h2"/>
  <path stroke="#6a4a69" d="M129 51h1m-22 11h7m-8 1h8m8 0h2m-2 1h2m-2 1h2m-19 6h1m-24 31h1m-1 1h1m-23 25h1m-1 1h2m-2 1h2m-2 1h2m-2 1h2m-2 1h2m-2 1h2m-2 1h2"/>
  <path stroke="#6a4a6c" d="M130 51h1m-2 1h1m3 2h1m-2 1h2m-7 5h1m-1 1h2m-14 1h9m3 0h2m-14 1h8m5 0h1m-6 3h2m-2 1h2m-2 1h2m-2 1h2m-2 1h2m-2 1h2m-2 1h2m-2 1h2m1 7h1m-1 1h1m-1 1h1m-1 1h1m-1 1h1m-51 1h3m47 0h1m-51 1h3m47 0h1m-51 1h3m47 0h1m-51 1h3m-3 1h3m-3 1h3m-3 1h3m-3 1h3m-3 1h3m-3 1h3m49 0h1m-53 1h3m49 0h1m-53 1h3m-3 1h3m-3 1h3m50 0h2m-55 1h3m50 0h2m-2 1h2m-2 1h2m-2 1h2m-2 1h2m-2 1h2m-2 1h2m-2 1h2m-2 1h2m-2 1h2m-2 1h2m-47 1h1m44 0h2m-2 1h2m-53 1h1m50 0h2m-54 1h2m50 0h2m-54 1h2m50 0h2m-53 1h1m50 0h2m-2 1h2m-2 1h2m-2 1h2m-70 3h2m-2 1h2m-2 1h2m-2 1h2m-2 1h2m-2 1h2m-2 1h2m-1 1h1m15 0h1m-2 1h2m-2 1h2m-1 1h1m-1 3h1m-2 1h2m-16 1h1m12 0h3m-3 1h3m-22 1h1m25 0h1"/>
  <path stroke="#45254d" d="M135 51h1m-1 1h1m-1 1h1m-1 1h1m-1 1h1m4 0h1m-6 1h1m-1 1h1m-1 1h1m-1 1h1m-1 1h1m-1 1h1m-1 1h1m-1 1h1m-1 1h1m-1 1h1m-1 1h1m-1 1h1m-1 1h1m-1 1h1m-1 1h1m-1 1h1m-1 1h1m-1 1h1m-1 1h1m-1 1h1m-1 1h1m-1 1h1m-1 1h1m-1 1h1m-1 1h1m-1 1h1m-1 1h1m-1 1h1m-1 1h1m-1 1h1m-1 1h1m-1 1h1m-1 1h1m-1 1h1m-1 1h1m-1 1h1m-1 1h1m-1 1h1m-1 1h1m-93 1h1m91 0h1m-1 1h1m-1 1h1m-1 1h1m-1 1h1m-64 1h2m61 0h1m-65 1h2m62 0h1m-65 1h2m62 0h1m-65 1h2m62 0h1m-65 1h2m62 0h1m-65 1h2m62 0h1m-65 1h2m62 0h1m-65 1h2m62 0h1m-65 1h4m60 0h1m-65 1h4m60 0h1m-65 1h4m60 0h1m-71 1h1m5 0h4m10 0h1m49 0h1m-71 1h1m6 0h2m11 0h1m49 0h1m-63 1h1m11 0h1m49 0h1m-63 1h1m11 0h1m49 0h1m-64 1h1m12 0h1m49 0h1m-65 1h2m12 0h1m49 0h1m-65 1h2m12 0h1m49 0h1m-65 1h2m12 0h1m49 0h1m-71 1h1m5 0h2m12 0h1m-15 1h2m12 0h1m39 0h2m2 0h2m-60 1h2m12 0h1m-15 1h2m12 0h1m-15 1h2m12 0h1m-15 1h4m10 0h1m-15 1h4m10 0h1m-15 1h4m10 0h1m-15 1h4m10 0h1m-14 1h2m11 0h1m-13 1h1m11 0h1m-13 1h1m11 0h1m-14 1h1m12 0h1m-15 1h2m12 0h1m-15 1h2m12 0h1m-15 1h2m12 0h1m-15 1h3m11 0h1m-12 1h1m10 0h1m-12 1h1m10 0h1m2 0h1m-18 1h3m14 0h1m-18 1h3m2 1h4m3 0h1"/>
  <path stroke="#563061" d="M24 52h1m-1 12h1m-1 1h1m-1 1h1m-1 1h1"/>
  <path stroke="#81548a" d="M25 52h1m-1 1h1m7 0h1m-1 1h1m-9 3h1m-1 1h1m-1 1h1m-1 1h1m-1 1h1m-1 1h1m-1 1h1m-1 1h1m-1 1h1m-1 1h1m-1 1h1"/>
  <path stroke="#835189" d="M26 52h1m-1 1h1m-1 1h1m-1 2h1m-1 1h1m-1 1h1m-1 1h1m-1 1h1m-1 1h1m-1 1h1m-1 1h1m-1 1h1m-1 1h1m-1 1h1m-1 1h1m17 4h1m2 0h1m3 0h2"/>
  <path stroke="#815488" d="M34 52h1m-1 1h1m-10 1h1m8 0h1m-10 1h1m8 0h1m-10 1h1m38 25h1m-1 1h1m-1 1h1m-40 4h1m-1 1h1m0 1h1"/>
  <path stroke="#936a96" d="M124 52h1M46 99h1"/>
  <path stroke="#42274d" d="M137 52h2m-2 1h2m4 0h1m-7 1h2m-33 44h1m-4 4h1m-2 5h1m-14 4h2"/>
  <path stroke="#40284d" d="M141 52h2m-2 1h2"/>
  <path stroke="#56315f" d="M24 53h1m-1 1h1m-1 1h1"/>
  <path stroke="#956996" d="M124 53h1m-1 4h1"/>
  <path stroke="#6e4770" d="M125 53h1m-23 17h2M78 80h1m0 1h1m-1 1h2m-2 1h1"/>
  <path stroke="#3e2a47" d="M144 53h1m-1 1h1m-1 1h1m-1 1h1m-39 43h2m-4 5h1m-1 1h1m-1 1h1m-1 1h1m-3 2h2m-79 3h1m60 27h1"/>
  <path stroke="#956a94" d="M124 54h1m-1 1h1m-1 3h1M65 70h1"/>
  <path stroke="#6e486c" d="M127 54h2m-2 1h2m0 1h1m-1 1h1m0 3h1m-26 1h2m23 0h1m-26 3h1m-1 1h1m-13 5h8m-16 9h1m-1 1h1m-6 4h5m-5 1h5m16 2h2m26 1h2m-2 1h2m-4 1h2m-2 1h2m-68 47h2"/>
  <path stroke="#835287" d="M26 55h1m22 16h2"/>
  <path stroke="#996995" d="M47 56h1m-1 1h1m53 9h2m-46 1h2m42 0h1M43 85h1m-1 1h1m3 6h2m2 0h2m-6 1h2"/>
  <path stroke="#996997" d="M48 56h1m58 0h8m-67 1h1m58 0h8m-30 7h2m-2 1h2m12 0h3m-45 1h2m40 0h1m-1 1h1m2 0h1m-4 1h3M43 81h1m-1 1h1m-1 1h1m-1 1h1m-1 3h1m7 4h3m-5 1h2m2 0h1m-5 1h5m-5 1h3m-2 1h1"/>
  <path stroke="#996899" d="M51 56h6m58 0h9m-73 1h6m58 0h9m-67 1h2m-2 1h2m-2 1h2m-2 1h2M43 80h1m10 11h1m-1 1h1m-1 1h1m-3 1h2m-3 1h3"/>
  <path stroke="#976996" d="M124 56h1M83 69h1M46 95h1m-1 1h1m-1 1h1m-1 1h1"/>
  <path stroke="#543161" d="M24 57h1m-1 1h1m-1 1h1m-1 1h1m-1 1h1m-1 1h1m-1 1h1"/>
  <path stroke="#533564" d="M23 58h1m-1 1h1m-1 1h1m-1 1h1m-1 1h1m-1 1h1m-1 43h1m-1 1h1"/>
  <path stroke="#ad81b0" d="M35 59h1"/>
  <path stroke="#936b94" d="M124 59h1"/>
  <path stroke="#845587" d="M43 60h1"/>
  <path stroke="#845585" d="M44 60h1"/>
  <path stroke="#86548b" d="M43 61h1m-1 2h1m-1 1h1m19 18h1m-1 1h1"/>
  <path stroke="#845589" d="M44 61h1m-1 1h1m-1 1h1m-1 3h1m-1 1h1m-1 2h1m0 1h1m17 10h1"/>
  <path stroke="#ac81ad" d="M45 61h1m-1 1h1m-1 1h1m-1 1h1m-1 1h1"/>
  <path stroke="#956c93" d="M104 61h1m-1 1h1m-1 1h1"/>
  <path stroke="#84548b" d="M43 62h1m-1 7h1m19 12h1"/>
  <path stroke="#6e4869" d="M105 62h1m-1 1h1m-46 75h1"/>
  <path stroke="#865489" d="M44 64h1m-1 1h1m-19 3h1m18 12h1m-1 1h1m-1 1h1m-1 1h1m-1 1h1m-1 1h1m-1 1h1m-1 1h1m-19 1h8"/>
  <path stroke="#87538b" d="M43 65h1"/>
  <path stroke="#86538d" d="M43 66h1m-1 1h1"/>
  <path stroke="#ab81ad" d="M45 66h1m-1 1h1m-1 1h1"/>
  <path stroke="#9b6897" d="M100 66h1m-1 1h1"/>
  <path stroke="#553464" d="M23 67h1m-1 1h1"/>
  <path stroke="#573263" d="M24 68h1"/>
  <path stroke="#976898" d="M83 68h2M44 88h1m1 2h5"/>
  <path stroke="#956b97" d="M104 68h1m-1 1h1M45 97h1m-1 1h1"/>
  <path stroke="#6d466e" d="M105 68h1"/>
  <path stroke="#6b476c" d="M106 68h1m-1 1h1m18 18h1m-1 3h1"/>
  <path stroke="#53325f" d="M23 69h1m-2 22h1"/>
  <path stroke="#55305e" d="M24 69h1"/>
  <path stroke="#835788" d="M25 69h1"/>
  <path stroke="#865487" d="M26 69h1"/>
  <path stroke="#ac80af" d="M45 69h1"/>
  <path stroke="#af81ac" d="M48 69h2m5 8h1m-1 1h1m8 0h1"/>
  <path stroke="#af81ae" d="M50 69h4m1 10h1m7 0h2"/>
  <path stroke="#593561" d="M24 70h1"/>
  <path stroke="#946894" d="M25 70h1"/>
  <path stroke="#98699b" d="M34 70h1m-1 5h1m-1 1h1m-1 1h1m-8 1h8m-8 1h8m0 1h8m-8 1h7m-7 1h1m-1 1h1m-1 1h1m-1 1h1m-1 1h1m-1 1h1m-1 1h1m18 8h1m-1 1h1m-1 1h1"/>
  <path stroke="#845388" d="M35 70h1m11 0h1m3 0h3m-19 1h1m-1 1h1m-1 1h1m-1 1h8m-8 1h8m-8 1h8m-7 1h7m-1 1h1m0 1h2m9 0h1m-6 1h2m-2 1h2m-24 1h7m15 0h2m-24 1h8m14 0h2m-24 1h8m14 0h2m-24 1h8m14 0h2m-18 1h2m14 0h2m-18 1h2m15 0h1m2 1h1m-5 1h4m1 0h1m0 1h1m-1 1h1m-1 1h1m-1 1h1m-1 1h1m-1 1h1m5 4h2"/>
  <path stroke="#805188" d="M44 70h1"/>
  <path stroke="#845386" d="M48 70h3m-16 7h1m18 0h1m-20 1h7m12 0h1m-20 1h8m-16 1h8m-8 1h8m-1 1h1m18 7h1"/>
  <path stroke="#af83ad" d="M64 70h1"/>
  <path stroke="#724771" d="M85 70h1"/>
  <path stroke="#6f4670" d="M86 70h1m-8 10h2m-1 1h1"/>
  <path stroke="#6c4b6d" d="M106 70h1m-18 1h2m-7 38h1m-1 2h1m-1 25h1m-1 1h1"/>
  <path stroke="#57325f" d="M24 71h1"/>
  <path stroke="#9c6c97" d="M26 71h1"/>
  <path stroke="#996b96" d="M27 71h2"/>
  <path stroke="#83538c" d="M45 71h1"/>
  <path stroke="#83518b" d="M46 71h1m6 0h1"/>
  <path stroke="#855089" d="M48 71h1"/>
  <path stroke="#825287" d="M54 71h1M45 88h1"/>
  <path stroke="#6c4b6b" d="M91 71h2m6 0h2"/>
  <path stroke="#6d4a6b" d="M93 71h6"/>
  <path stroke="#573460" d="M24 72h1m-1 8h1m-1 1h1m-1 1h1m60 18h1"/>
  <path stroke="#956b99" d="M25 73h1m-1 1h1m-1 1h1m-1 1h1m-1 1h1m40 2h6M35 89h8m2 1h1m1 9h7"/>
  <path stroke="#966d96" d="M84 74h1m-1 1h1m-1 1h1m-1 1h1m-1 1h1"/>
  <path stroke="#956b9b" d="M25 78h1m-1 1h1"/>
  <path stroke="#996a9c" d="M26 78h1m-1 1h1"/>
  <path stroke="#af82aa" d="M63 78h1"/>
  <path stroke="#966d94" d="M84 79h1"/>
  <path stroke="#533660" d="M23 80h1m-1 1h1m-1 1h1m-1 1h1m-1 17h1m-1 1h1m-1 1h1m-1 1h1m62 6h1"/>
  <path stroke="#805686" d="M25 80h1m-1 1h1m-1 1h1"/>
  <path stroke="#986798" d="M44 80h1m6 10h3"/>
  <path stroke="#815586" d="M64 80h1M55 99h1"/>
  <path stroke="#59315f" d="M65 80h1"/>
  <path stroke="#54325d" d="M66 80h1m57 15h1"/>
  <path stroke="#57335d" d="M72 80h2"/>
  <path stroke="#57335b" d="M74 80h1"/>
  <path stroke="#8c668c" d="M105 80h1m18 0h1"/>
  <path stroke="#8e658e" d="M106 80h17m-18 1h18m-18 1h19m-19 1h19m-19 1h1m-1 1h1m-1 1h1m-1 1h1m-3 3h1m-13 2h8m2 0h1m-11 1h8m2 0h2m-13 1h9m2 0h2m-13 1h1m5 0h3m2 0h2m-47 24h3m2 0h2"/>
  <path stroke="#8c668e" d="M123 80h1m-1 1h2m-1 1h1m-1 1h1"/>
  <path stroke="#573261" d="M65 81h1m-1 1h1m-1 1h1m-12 17h1"/>
  <path stroke="#54355b" d="M73 81h2m-2 1h2m-1 1h1"/>
  <path stroke="#805588" d="M25 83h1m-1 1h1m-1 1h1m-1 1h1m-1 3h1"/>
  <path stroke="#805387" d="M64 84h1m-38 5h7"/>
  <path stroke="#583362" d="M65 84h1m-42 4h1"/>
  <path stroke="#8f6390" d="M106 84h17m-17 1h17m-17 1h9m7 0h1m-17 1h9m7 0h1m-16 1h8m7 0h1m-20 3h1m-17 1h4m12 0h1m-15 1h2m12 0h1m-15 1h1m9 0h2m2 0h1m-17 1h2m10 0h2m2 0h1m-17 1h2m7 0h5m-4 1h4m-14 1h2m12 0h2m-47 3h3m-2 1h2m-2 1h2m-3 1h3m1 0h3m-7 1h3m2 0h2m-7 1h3m2 0h2m-7 1h3m2 0h2m-7 1h3m2 0h2m-7 1h3m2 0h2m-7 1h3m2 0h2m-7 1h3m2 0h2m-7 1h3m2 0h2m-7 1h3m2 0h2m-7 1h3m2 0h2m-7 1h3m2 0h2m-7 1h3m2 0h2m-7 1h3m2 0h2m-7 1h3m2 0h2"/>
  <path stroke="#8e6490" d="M123 84h1m0 2h1m-1 1h1m-11 2h1m9 0h1m-26 3h2m-2 1h2m-12 2h1m1 0h5m-7 1h2m10 0h3m-15 1h2m10 0h3m-15 1h2m5 1h6m-47 3h1m-1 1h1m-1 1h1m3 0h1m-1 1h2m-2 1h2m-2 1h2m-2 1h2m-2 1h2m-2 1h2m-2 1h2"/>
  <path stroke="#8c6590" d="M124 84h1m-1 1h1m-18 4h1m-6 10h2m-49 20h1"/>
  <path stroke="#805389" d="M64 85h1m-1 3h1m-1 1h1m-1 1h1m-1 1h1m-1 1h1m-1 1h1m-1 1h1m-1 1h1m-1 1h1m-1 1h1"/>
  <path stroke="#583364" d="M65 85h1m-1 1h1m-1 1h1"/>
  <path stroke="#8e6492" d="M123 85h1m-16 4h6m9 0h1M91 99h5m-41 1h1m-1 1h1m-1 4h1m-1 1h1m-1 1h1m-1 1h1m-1 1h1m-1 1h1m-1 1h1m-1 1h1m-1 1h1m-1 1h1m-1 1h1m-1 1h1m-1 1h1m-1 1h1"/>
  <path stroke="#86528a" d="M63 86h1m-1 1h1"/>
  <path stroke="#825289" d="M64 86h1m-1 1h1"/>
  <path stroke="#8f648e" d="M115 86h7m-7 1h7m-7 1h7m-20 4h1m-16 5h2m10 1h2m2 0h1m-48 4h1m2 0h2m-5 1h1m2 0h2m-2 9h2m-2 1h2m-2 1h2m-2 1h2m-2 1h2m-2 1h2m-2 1h2"/>
  <path stroke="#8f6392" d="M123 86h1m-1 1h1m-33 9h5m-5 1h1m1 0h4m-6 1h1m-36 2h2"/>
  <path stroke="#563663" d="M23 88h1"/>
  <path stroke="#87558a" d="M26 88h1"/>
  <path stroke="#84528c" d="M47 88h2m7 0h1m-1 1h1m2 7h1m-1 1h1m-1 1h2"/>
  <path stroke="#573464" d="M65 88h1m-1 1h1m-1 1h1m-1 1h1m-1 1h1m-1 1h1m-1 1h1m-1 1h1m-1 1h1m-1 1h1m-1 1h1m-1 1h1"/>
  <path stroke="#8f668f" d="M105 88h2m-21 3h5m-27 14h1m-1 1h1m-1 1h1m-1 1h1m-1 1h1m-1 1h1m-2 9h1"/>
  <path stroke="#906191" d="M123 88h1"/>
  <path stroke="#906591" d="M124 88h1m-34 3h8m2 0h2m-17 1h1m-1 1h1m-1 1h1m-24 10h1"/>
  <path stroke="#805485" d="M34 89h1"/>
  <path stroke="#966c98" d="M43 89h1m1 2h1"/>
  <path stroke="#7f5284" d="M45 89h1"/>
  <path stroke="#88648b" d="M105 89h1"/>
  <path stroke="#8d6691" d="M106 89h1m-3 2h1m-1 1h1m-1 4h1m-1 1h1m-41 16h1m-1 1h1m-1 1h1m-1 1h1m-1 1h1m-1 1h1"/>
  <path stroke="#8c638f" d="M115 89h8"/>
  <path stroke="#52315e" d="M24 90h1"/>
  <path stroke="#462651" d="M35 90h8"/>
  <path stroke="#492652" d="M43 90h1m0 1h1"/>
  <path stroke="#48234f" d="M44 90h1m20 11h1m-1 1h1"/>
  <path stroke="#98679a" d="M54 90h1"/>
  <path stroke="#8a6489" d="M85 90h1"/>
  <path stroke="#8c648d" d="M86 90h15m-16 1h1m-1 1h1m-1 1h1m-1 1h1"/>
  <path stroke="#8e638d" d="M101 90h2"/>
  <path stroke="#88648d" d="M104 90h1"/>
  <path stroke="#45234e" d="M107 90h1m6 0h1m-10 2h1m-1 1h1"/>
  <path stroke="#452250" d="M108 90h6"/>
  <path stroke="#58345e" d="M124 90h1"/>
  <path stroke="#8f6591" d="M99 91h2m3 2h1m-1 1h1m-19 1h1m17 0h1m-19 1h1m-1 1h1m-1 1h1m-23 6h1"/>
  <path stroke="#442854" d="M106 91h1"/>
  <path stroke="#442653" d="M107 91h1m-83 9h1m-1 1h1m-1 4h1m-1 3h1"/>
  <path stroke="#462653" d="M108 91h7"/>
  <path stroke="#482553" d="M44 92h1m-1 1h1"/>
  <path stroke="#916292" d="M87 93h2m-2 1h2m3 4h3m-37 2h5"/>
  <path stroke="#492451" d="M44 94h1m-1 2h1"/>
  <path stroke="#99689b" d="M54 94h1m-1 1h1"/>
  <path stroke="#49254f" d="M44 95h1"/>
  <path stroke="#8b648d" d="M85 95h1m-1 1h1m-1 1h1m-1 1h1"/>
  <path stroke="#86518c" d="M60 96h1m-1 1h1"/>
  <path stroke="#482551" d="M44 97h1m-1 1h1"/>
  <path stroke="#8f6394" d="M92 97h1"/>
  <path stroke="#7e5489" d="M64 98h1"/>
  <path stroke="#694968" d="M83 98h1m-1 1h1"/>
  <path stroke="#916390" d="M95 98h4m-40 3h4m-1 1h1m-1 1h1"/>
  <path stroke="#8d678f" d="M104 98h1m-41 13h1m-1 1h1m-1 7h1"/>
  <path stroke="#40284b" d="M35 99h1m-2 1h1m60 9h1m35 20h3"/>
  <path stroke="#44284b" d="M44 99h1"/>
  <path stroke="#916d97" d="M45 99h1"/>
  <path stroke="#966a9b" d="M54 99h1"/>
  <path stroke="#7e5487" d="M64 99h1"/>
  <path stroke="#89658f" d="M85 99h1"/>
  <path stroke="#8d6693" d="M86 99h1"/>
  <path stroke="#8c6592" d="M87 99h4"/>
  <path stroke="#8a688f" d="M104 99h1"/>
  <path stroke="#402746" d="M105 99h1"/>
  <path stroke="#503657" d="M45 100h1"/>
  <path stroke="#926395" d="M63 100h1"/>
  <path stroke="#8f6595" d="M64 100h1"/>
  <path stroke="#462451" d="M65 100h1m29 0h1"/>
  <path stroke="#46244f" d="M96 100h6m-37 3h1"/>
  <path stroke="#4c3855" d="M45 101h1"/>
  <path stroke="#926393" d="M63 101h1m-1 1h1"/>
  <path stroke="#906493" d="M64 101h1m-1 1h1"/>
  <path stroke="#402b49" d="M104 101h1m-1 1h1m-1 1h1"/>
  <path stroke="#91638e" d="M61 102h1m-1 1h1"/>
  <path stroke="#926491" d="M63 103h1"/>
  <path stroke="#8f6593" d="M64 103h1"/>
  <path stroke="#523662" d="M23 104h1m-1 1h1m-1 3h1"/>
  <path stroke="#46244d" d="M65 104h1m-1 1h1m-1 1h1m-1 1h1m-1 1h1m-1 1h1m-1 1h1"/>
  <path stroke="#90658f" d="M63 105h1m-1 1h1m-1 1h1m-1 1h1m-1 1h1m-1 1h1m-1 1h1m-1 1h1m-1 1h1m-1 1h1m-1 1h1m-1 1h1m-1 1h1m-1 1h1"/>
  <path stroke="#432753" d="M25 106h1m-1 1h1"/>
  <path stroke="#422651" d="M26 106h1m73 0h1m-75 1h1"/>
  <path stroke="#422450" d="M26 108h1m-1 1h1m39 37h1m-1 1h1"/>
  <path stroke="#6b4868" d="M83 108h1m-1 1h1"/>
  <path stroke="#553761" d="M86 108h1"/>
  <path stroke="#4c3a55" d="M15 109h1m29 30h1"/>
  <path stroke="#4e3657" d="M19 109h1m41 40h2"/>
  <path stroke="#4e3755" d="M20 109h2"/>
  <path stroke="#4b3658" d="M24 109h1"/>
  <path stroke="#50345d" d="M89 109h2"/>
  <path stroke="#50355b" d="M94 109h1"/>
  <path stroke="#3e294b" d="M25 110h1m58 35h1m-1 1h1"/>
  <path stroke="#472850" d="M85 110h1"/>
  <path stroke="#43284f" d="M89 110h1"/>
  <path stroke="#432851" d="M90 110h1"/>
  <path stroke="#3d2b43" d="M25 119h1m8 0h1m109 0h1m-51 20h1"/>
  <path stroke="#8e658c" d="M59 119h2"/>
  <path stroke="#6c4a71" d="M125 119h1"/>
  <path stroke="#694a6e" d="M129 119h2m3 0h1"/>
  <path stroke="#422849" d="M135 119h1m-52 21h1"/>
  <path stroke="#42244e" d="M66 120h1m-1 1h1m-1 1h1m-1 1h1m-1 1h1m-1 1h1m-1 1h1m-1 1h1m-1 13h1m-1 4h1m-1 1h1"/>
  <path stroke="#422847" d="M134 120h1"/>
  <path stroke="#44244a" d="M65 129h1m-1 1h1m-1 1h1m-1 1h1m-1 1h1m-1 1h1m-1 1h1m-1 1h1m-1 1h1m-1 1h1"/>
  <path stroke="#3d2b45" d="M134 129h1"/>
  <path stroke="#6a4b6f" d="M84 139h1"/>
  <path stroke="#40254e" d="M66 141h1m-1 1h1m-1 1h1"/>
  <path stroke="#4e3659" d="M59 149h2"/>
  <path stroke="#50395a" d="M63 149h1"/>
  <path stroke="#422b4a" d="M65 149h1"/>
  <path stroke="#412a49" d="M66 149h1"/>
</svg>
